<?xml version="1.0" encoding="iso-8859-1"?>
<!-- Generator: Adobe Illustrator 19.0.0, SVG Export Plug-In . SVG Version: 6.00 Build 0)  -->
<svg version="1.1" id="Capa_1" xmlns="http://www.w3.org/2000/svg" xmlns:xlink="http://www.w3.org/1999/xlink" x="0px" y="0px"
	 viewBox="0 0 60 60" style="enable-background:new 0 0 60 60;" xml:space="preserve" fill="#d27e01" >
<g>
	<g>
		<path d="M18,17h2c2.8,0,5-2.2,5-5V9V1c0-0.6-0.4-1-1-1H14c-0.6,0-1,0.4-1,1v8v3C13,14.8,15.2,17,18,17z M23,12c0,1.7-1.3,3-3,3h-2
			c-1.7,0-3-1.3-3-3v-2h8V12z M23,2v6h-8V6h5V4h-5V2H23z"/>
		<path d="M59,38h-2v-3c0-0.6-0.4-1-1-1h-2V22h2v-2h-3h-7v-2h-2v2h-7h-3v2h2v12h-2c-0.6,0-1,0.4-1,1v3h-2V25c0-3.9-3.1-7-7-7H14
			c-3.9,0-7,3.1-7,7v13H1c-0.6,0-1,0.4-1,1v4v16c0,0.6,0.4,1,1,1h58c0.6,0,1-0.4,1-1V43v-4C60,38.4,59.6,38,59,38z M38,26h11v-2H38
			v-2h14v12H38V26z M35,36h2h16h2v2H35V36z M29,25v13h-3V26h-2v2h-1v-8h1C26.8,20,29,22.2,29,25z M14,30h10v8H14V30z M17,28v-8h4v8
			H17z M9,25c0-2.8,2.2-5,5-5h1v8h-1v-2h-2v12H9V25z M2,40h32h22h2v2H2V40z M58,58H2V44h56V58z"/>
		<rect x="18" y="32" width="2" height="2"/>
		<rect x="18" y="35" width="2" height="2"/>
		<rect x="40" y="8" width="2" height="8"/>
		<rect x="49" y="8" width="2" height="8"/>
		<rect x="53" y="12" width="2" height="4"/>
		<rect x="36" y="12" width="2" height="4"/>
	</g>
</g>
<g>
</g>
<g>
</g>
<g>
</g>
<g>
</g>
<g>
</g>
<g>
</g>
<g>
</g>
<g>
</g>
<g>
</g>
<g>
</g>
<g>
</g>
<g>
</g>
<g>
</g>
<g>
</g>
<g>
</g>
</svg>
